<svg xmlns="http://www.w3.org/2000/svg" xmlns:xlink="http://www.w3.org/1999/xlink" width="188" height="41" viewBox="0 0 188 41">
    <defs>
        <path id="a" d="M0 .233h32.652V39.69H0z"/>
    </defs>
    <g fill="none" fill-rule="evenodd">
        <path fill="#FEFEFE" d="M54.91 13.63c-1.326.365-2.166.512-3.1.512-2.965 0-5.05-1.925-5.05-4.632 0-1.952 1.232-3.73 3.005-4.31a6.66 6.66 0 0 1 2.004-.295c.826 0 1.327.094 2.207.404V4.81h.745v2.397h-.745V6.184c-.69-.363-1.232-.512-2.03-.512-1.842 0-3.277 1.684-3.277 3.838 0 2.087 1.57 3.825 3.452 3.825.38 0 .57-.04 1.043-.189v-2.235H52v-.566h3.926v.566h-1.015v2.72zM69.534 10.152h.658c.77 0 1.294-.61 1.294-1.486 0-.888-.457-1.398-1.25-1.398h-.702v2.884zm4.54 3.816h-1.417c-.658 0-.77-.067-1.149-.655l-1.673-2.606h-.3v2.795h.836v.466h-3.123v-.466h.847v-6.39h-.847v-.465h3.29c.96 0 1.494.144 1.896.543.368.366.547.843.547 1.431 0 .998-.514 1.642-1.562 1.964l1.584 2.417c.256.389.39.489.613.489h.457v.477zM86.71 13.48c1.126 0 2.118-1.487 2.118-3.173 0-1.675-.992-3.161-2.118-3.161-1.116 0-2.108 1.486-2.108 3.161 0 1.686.992 3.172 2.108 3.172m0 .633c-2.052 0-3.68-1.686-3.68-3.805 0-2.118 1.628-3.793 3.68-3.793 2.052 0 3.691 1.675 3.691 3.793 0 2.12-1.64 3.805-3.691 3.805M101.008 14.067h-.614v-1.996h.614v.82c.502.4.88.544 1.427.544.692 0 1.194-.41 1.194-.987 0-.5-.324-.854-1.361-1.52-1.093-.688-1.227-.798-1.517-1.13-.279-.323-.424-.766-.424-1.254 0-1.22.904-2.03 2.264-2.03.435 0 .781.066 1.205.244v-.333h.602v1.897h-.602v-.766c-.469-.3-.77-.41-1.182-.41-.58 0-1.027.41-1.027.932 0 .443.257.72 1.328 1.397.513.333.836.533.959.621.256.178.49.422.68.722.212.343.312.71.312 1.142 0 1.264-.925 2.152-2.23 2.152-.647 0-1.115-.133-1.628-.433v.388zM115.852 14.067h-.613v-1.996h.613v.82c.502.4.881.544 1.428.544.691 0 1.193-.41 1.193-.987 0-.5-.323-.854-1.36-1.52-1.094-.688-1.227-.798-1.517-1.13-.28-.323-.424-.766-.424-1.254 0-1.22.903-2.03 2.264-2.03.435 0 .78.066 1.204.244v-.333h.603v1.897h-.603v-.766c-.468-.3-.77-.41-1.182-.41-.58 0-1.026.41-1.026.932 0 .443.257.72 1.327 1.397.513.333.837.533.96.621.256.178.49.422.68.722.212.343.312.71.312 1.142 0 1.264-.926 2.152-2.23 2.152-.647 0-1.116-.133-1.629-.433v.388zM138.693 13.968h-3.312v-.466h.937V8.71l-2.454 5.368-2.688-5.268v4.692h.937v.466h-2.576v-.466h.937v-6.39h-.937v-.465h1.974l2.643 5.157 2.33-5.157h2.21v.466h-.938v6.389h.937zM151.887 13.48c1.126 0 2.12-1.487 2.12-3.173 0-1.675-.994-3.161-2.12-3.161-1.115 0-2.108 1.486-2.108 3.161 0 1.686.993 3.172 2.108 3.172m0 .633c-2.052 0-3.68-1.686-3.68-3.805 0-2.118 1.628-3.793 3.68-3.793 2.052 0 3.691 1.675 3.691 3.793 0 2.12-1.639 3.805-3.691 3.805M171.505 14.09h-.78l-3.882-5.435v4.847h.881v.465h-2.52v-.465h.925V7.678l-.357-.565h-.802v-.466h2.219l3.613 5.113V7.113h-.88v-.466h2.52v.466h-.937zM186.539 13.968h-3.591v-.466h1.082v-6.2h-1.93v.92h-.613V6.336h.613v.31h5.287v-.31H188v1.886h-.613v-.92h-1.919v6.2h1.071zM73.75 31.638c-1.166.423-1.892.573-2.934.573-2.892 0-4.948-1.936-4.948-4.65 0-2.685 2.056-4.689 4.81-4.689.892 0 1.509.123 2.304.464v-.573h.754v2.44h-.754v-.872c-.782-.545-1.22-.695-1.947-.695-1.905 0-3.235 1.58-3.235 3.844 0 2.209 1.467 3.926 3.358 3.926.686 0 1.18-.15 1.824-.545v-1.036h.767v1.813zM88.95 31.543c1.13 0 2.128-1.492 2.128-3.185 0-1.682-.997-3.175-2.128-3.175-1.12 0-2.117 1.493-2.117 3.175 0 1.693.997 3.185 2.117 3.185m0 .635c-2.061 0-3.696-1.693-3.696-3.82 0-2.128 1.635-3.81 3.696-3.81 2.06 0 3.707 1.682 3.707 3.81 0 2.127-1.647 3.82-3.707 3.82M107.407 32.033h-5.287v-.467h.852v-6.417h-.852v-.467h3.137v.467h-.84v6.227h2.385v-.824h.605zM121.81 32.033h-5.287v-.467h.851v-6.417h-.85v-.467h3.135v.467h-.84v6.227h2.386v-.824h.605zM136.257 32.033h-5.33v-.467h.85v-6.417h-.85v-.467h4.613v-.312h.605v1.77h-.593v-.801h-2.33v2.629h1.792v-.758l.605-.01v2.193l-.605.011v-.78h-1.792v2.752h2.43v-.824h.605zM152.542 31.755c-1.098.3-1.793.423-2.565.423-2.453 0-4.178-1.592-4.178-3.831 0-1.616 1.02-3.086 2.487-3.565a5.508 5.508 0 0 1 1.657-.245c.683 0 1.098.078 1.826.334v-.412h.616v1.982h-.616v-.846c-.572-.3-1.02-.423-1.68-.423-1.524 0-2.71 1.392-2.71 3.175 0 1.726 1.298 3.163 2.855 3.163.314 0 .47-.034.863-.156v-1.85h-.964v-.467h3.248v.468h-.84v2.25zM168.02 32.033h-5.332v-.467h.852v-6.417h-.852v-.467h4.615v-.312h.605v1.77h-.594v-.801h-2.33v2.629h1.792v-.758l.605-.01v2.193l-.605.011v-.78h-1.792v2.752h2.43v-.824h.605z"/>
        <g transform="translate(0 .077)">
            <mask id="b" fill="#fff">
                <use xlink:href="#a"/>
            </mask>
            <path fill="#FEFEFE" d="M2.452 24.065V2.672h26.467L2.452 24.065zM0 .233v26.323L16.17 39.69l16.482-13.134V.233H0z" mask="url(#b)"/>
        </g>
        <path fill="#116A66" d="M17.159 17.293c-.121-.009-.218-.02-.213-.106.006-.085.105-.083.226-.074.12.01.217.035.212.106-.005.068-.104.083-.225.074m11.27 6.992c-.12-.19-.422-.194-.48-.193a.029.029 0 0 1-.021-.008c-.054-.05-.223-.32-.397-.64-.168-.311-.387-1.002-.432-1.148a.03.03 0 0 0-.036-.02c-.108.03-.507.139-.75.139-.246 0-.63-.057-.721-.07a.03.03 0 0 1-.024-.023c-.338-1.505-1.29-2.347-2.608-2.498-1.124-.13-2.057.27-2.313.394-.025.012-.052-.014-.04-.04.093-.203.306-.403.697-.527.455-.146 1.014-.052 1.468-.312a.793.793 0 0 0 .395-.591.03.03 0 0 0-.04-.031c-.885.323-1.596-.064-1.712-.12-.075-.036-.1-.13.018-.122l.087.003c.122 0 .376.012.886-.002 1.375-.036 1.433-.979 1.43-1.171a.029.029 0 0 0-.034-.028c-.65.116-1.438-.037-1.652-.147-.096-.05-.103-.111-.032-.128.443-.107 1.737.158 3.217-.213 1.284-.32 1.966-1.043 2.212-1.358.02-.027-.01-.062-.04-.044-.595.366-1.864.522-2.597.516-.996-.009-2.64-.409-4.04-.45-.48-.015-.884.097-1.211.353-.328.256-.53.935-.53 1.572 0 .638.196 1.282.21 1.47.013.186.02.712-.251.712-.272 0-.363-.221-.355-.554.006-.332.139-.29.153-1.15.014-.859-.611-1.422-1.47-1.427-.864-.005-.978.449-.994.563a.028.028 0 0 1-.03.025c-.118-.01-.545-.06-.836.216-.493.47-.144 1.168-.126 1.204h.002c.14-.346.348-.47.55-.484.403-.027.326.277.11.326a.614.614 0 0 1-.317.003.01.01 0 0 0-.012.008c-.047.314.204.541.262.589.008.007.012.016.01.025-.034.138-.48.42-.52 1.626-.036 1.06.585 1.51.779 1.625a.03.03 0 0 0 .045-.028 7.226 7.226 0 0 1-.004-.62c0-.025.031-.04.05-.022.097.088.255.331.279.666.028.402-.154.866-.314 1.116-.16.249-.404.45-.682.817-.228.3-.221.724-.211.87.001.022-.022.037-.043.027a1.72 1.72 0 0 0-.7-.162c-.467-.022-1.026.178-1.026.66 0 .391.279.595.412.67a.03.03 0 0 0 .044-.034c-.034-.128-.043-.338.006-.407.076-.106.185-.104.254-.104.295 0 .355.311.998.322.6.01.935-.44.97-.481.034-.042.043.03.043.03.088.163-.03.44-.098.574-.014.026.015.054.04.04.098-.049.26-.146.387-.292.193-.224.188-.447.183-.723a22.572 22.572 0 0 0-.033-.727c.007-.138.292-.25.585-.499a.912.912 0 0 0 .31-.545.029.029 0 0 1 .038-.022c.115.039.467.214.69.214.195 0 .8.083 1.643-.644.843-.728 1.7-1.337 2.515-1.372.815-.034 1.142.468 1.358.946.168.372.173 1.003.168 1.263-.001.03.036.043.054.02.097-.126.34-.328.906-.351.974-.041 1.377.504 1.478.672.013.02-.004.046-.029.044-1.057-.06-1.218.495-1.22.774a.81.81 0 0 0 .426.744c.033.018.069-.021.047-.053-.187-.281-.046-.552.357-.588.46-.042.543.207 1.072.194.53-.014.699-.27.725-.303.026-.034.042.012.042.012a.752.752 0 0 1 .108.444.037.037 0 0 0 .066.026c.109-.134.269-.382.29-.538.035-.273-.05-.431-.094-.5"/>
        <path fill="#116A66" d="M23.66 19.656a.028.028 0 0 0 .022.034c.128.023.651.13.967.386.35.285.505.47.569.6a.027.027 0 0 0 .02.016c.135.017 1.164.12 1.177-.792.014-.977-1.595-1.174-1.592-1.763.004-.59.52-.579.746-.433 0 0-.185.187-.185.43 0 .198.121.36.184.423a.028.028 0 0 0 .045-.01.567.567 0 0 1 .6-.351c.43.037.795.456.875.824.006.029.048.029.054 0 .06-.287.12-.949-.431-1.497-.725-.72-1.677-.551-2.032-.309-.356.242-.452.51-.457.875-.011.76.925 1.18 1.009 1.264.083.083-.021.062-.098.034-.076-.027-.278-.118-.64-.125-.353-.006-.745.052-.833.394M19.414 25.895c.01.03-.021.055-.049.041-.167-.078-.545-.311-.507-.82.049-.651.546-.79 1.145-.79.6 0 .867.021 1.028-.305.128-.261-.077-.368-.084-.843-.008-.473.55-1.166 1.143-1.31.655-.157.899-.03.899-.03s.265.092.097.188c-.242.139-.424.338-.424.578 0 .411.674.586.674 1.036 0 .45-.41.479-.815.492-.404.014-.543.187-.564.312-.02.125.32.312.293.693-.025.343-.338.558-.583.652a.035.035 0 0 1-.046-.045c.035-.099.077-.303.014-.635 0 0-.028-.144-.115.014-.066.12-.287.42-.684.414-.397-.007-.648-.29-1.094-.241-.396.043-.396.387-.328.599M15.249 21.217a.027.027 0 0 1 .037.02c.023.111.115.47.398.803.339.4.6.447.6.543-.001.183-.167.41-.494.41-.368 0-.498-.206-.707-.342-.211-.137-.436-.198-.48-.104 0 0-.08.444-.55.54a.028.028 0 0 1-.033-.032c.015-.077.042-.247.017-.335a.028.028 0 0 0-.031-.021c-.09.015-.435.056-.647-.16-.246-.25-.256-.499-.501-.69-.246-.193-.387-.241-.547-.224-.147.015-.27.142-.287.401-.002.026-.036.036-.05.014a.86.86 0 0 1-.15-.505c.01-.343.236-.82.713-.803.703.023.892.558 1.71.636.274.026.792-.06 1.002-.15"/>
        <path fill="#FEFEFE" d="M13.22 13.914c-1.403.384-2.291.541-3.28.541-3.136 0-5.341-2.037-5.341-4.9 0-2.065 1.303-3.945 3.179-4.558.63-.2 1.346-.313 2.12-.313.873 0 1.403.1 2.334.427v-.527h.788V7.12h-.788V6.037c-.73-.385-1.303-.541-2.148-.541-1.948 0-3.466 1.78-3.466 4.06 0 2.207 1.661 4.044 3.652 4.044.401 0 .601-.042 1.103-.199v-2.364H10.14v-.599h4.153v.599H13.22v2.877z"/>
    </g>
</svg>
